<?xml version="1.0" encoding="UTF-8"?>
<!DOCTYPE svg PUBLIC "-//W3C//DTD SVG 1.1//EN" "http://www.w3.org/Graphics/SVG/1.1/DTD/svg11.dtd">
<svg version="1.1" xmlns="http://www.w3.org/2000/svg" xmlns:xlink="http://www.w3.org/1999/xlink" x="0" y="0" width="381.375" height="365.964" viewBox="0, 0, 381.375, 365.964">
  <g id="Layer_1" transform="translate(-120, -66.036)">
    <path d="M409.651,66.036 L501.374,408.352 L413.118,432 L197.263,432 L120,143.648 L409.651,66.036 z M377.275,308.656 L377.275,308.656 C370.323,310.818 363.123,312.077 355.818,312 C349.14,311.831 342.388,311.269 336,309.166 L393.062,408 L434.631,408 L377.275,308.656 z M252,144 L216,144 L216,144 L216,144 L216,180 L216,180 L216,408 L252,408 L252,300 L312,300 L291.215,264 L252,264 L252,180 L336,180 L336,144 L252,144 L252,144 z M336,144 L336,170.332 C365.085,170.332 388.664,193.91 388.664,222.995 C387.946,251.375 367.535,273.2 339.194,275.541 L353.315,300 C389.178,292.667 414.795,259.082 414.995,222.995 C414.995,179.368 379.628,144 336,144 z" fill="#C15900"/>
    <path d="M290.413,233.535 C290.214,234.175 290.3,233.845 290.16,234.526 L289.794,233.892 L290.413,233.535 z" fill="#000000"/>
    <path d="M360,264 L360,265.815 L358.952,264 L360,264 z" fill="#000000"/>
  </g>
</svg>
